<?xml version="1.0" encoding="UTF-8"?>
<svg width="53.167mm" height="51.708mm" version="1.1" viewBox="0 0 53.167 51.708" xml:space="preserve" xmlns="http://www.w3.org/2000/svg"><g transform="translate(-1066.4 1444.8)"><g transform="translate(173.29 -147.53)"><path d="m906.93-1297.3c-0.9308 0.025-1.8768 0.129-2.8439 0.3285-7.7375 1.5962-9.6676 7.6551-11.019 10.82l8.5354 4.513c0.2166-0.7066 0.4892-1.3688 0.833-1.9763 1.1796-1.9546 2.895-3.0685 5.1455-3.3424 1.2421-0.1474 2.4435 0.02 3.6057 0.5059 0.2835 0.1099 0.6053 0.249 0.9482 0.4054l-8.09 40.45h13.315l7.1917-35.589c0.094-0.4607 2.3232 2.3181 8.394 1.6267 6.0706-0.6913 12.155-6.2412 13.288-12.739l-10.255-3.7332c-0.2493 1.079-0.6272 2.057-1.149 2.9225-2.2299 3.6334-5.465 3.8444-8.5511 2.9198-7.0628-3.4505-12.833-7.2771-19.349-7.1106z" fill="#fa9d17"/></g></g></svg>
